<?xml version="1.0" standalone="no"?>
<!DOCTYPE svg PUBLIC "-//W3C//DTD SVG 20010904//EN"
 "http://www.w3.org/TR/2001/REC-SVG-20010904/DTD/svg10.dtd">
<svg version="1.0" xmlns="http://www.w3.org/2000/svg"
 width="500.000000pt" height="500.000000pt" viewBox="0 0 500.000000 500.000000"
 preserveAspectRatio="xMidYMid meet">
<g transform="translate(0.000000,500.000000) scale(0.100000,-0.100000)"
fill="#000000" stroke="none">
<path d="M1040 4270 l0 -310 -310 0 -310 0 0 -210 0 -210 310 0 310 0 0 -310
0 -310 210 0 210 0 0 310 0 310 310 0 310 0 0 210 0 210 -310 0 -310 0 0 310
0 310 -210 0 -210 0 0 -310z"/>
<path d="M2920 3750 l0 -210 830 0 830 0 0 210 0 210 -830 0 -830 0 0 -210z"/>
<path d="M1557 1855 c-87 -88 -191 -195 -232 -237 -41 -43 -76 -78 -78 -78 -3
0 -108 104 -234 230 -127 127 -236 230 -244 230 -19 0 -269 -253 -269 -273 0
-16 230 -253 243 -249 4 1 7 -3 7 -9 0 -10 48 -59 153 -156 32 -29 57 -54 57
-57 0 -3 -24 -29 -54 -58 -30 -29 -138 -136 -240 -237 l-186 -184 149 -148
149 -148 184 185 c100 102 207 210 236 240 29 30 55 54 57 54 3 0 33 -30 68
-67 140 -150 389 -393 403 -393 18 0 274 253 274 271 0 7 -103 115 -230 242
-126 126 -230 232 -230 234 0 3 26 29 58 60 150 143 418 413 411 413 -5 0 -9
5 -9 11 0 14 -254 269 -268 269 -6 0 -12 3 -14 8 -1 4 -74 -65 -161 -153z"/>
<path d="M2920 1668 l0 -208 830 0 830 0 0 208 0 207 -830 0 -830 0 0 -207z"/>
<path d="M2920 835 l0 -205 830 0 830 0 0 205 0 205 -830 0 -830 0 0 -205z"/>
</g>
</svg>
