<?xml version="1.0" standalone="no"?>
<!DOCTYPE svg PUBLIC "-//W3C//DTD SVG 20010904//EN"
 "http://www.w3.org/TR/2001/REC-SVG-20010904/DTD/svg10.dtd">
<svg version="1.0" xmlns="http://www.w3.org/2000/svg"
 width="700.000000pt" height="700.000000pt" viewBox="0 0 700.000000 700.000000"
 preserveAspectRatio="xMidYMid meet">
<metadata>
Created by potrace 1.14, written by Peter Selinger 2001-2017
</metadata>
<g transform="translate(0.000000,700.000000) scale(0.100000,-0.100000)"
fill="#000000" stroke="none">
<path d="M1860 5490 l0 -350 -350 0 -350 0 0 -240 0 -240 350 0 350 0 0 -350
0 -350 240 0 240 0 0 350 0 350 350 0 350 0 0 240 0 240 -350 0 -350 0 0 350
0 350 -240 0 -240 0 0 -350z"/>
<path d="M3960 4900 l0 -240 940 0 940 0 0 240 0 240 -940 0 -940 0 0 -240z"/>
<path d="M1397 2803 l-167 -168 267 -267 268 -268 -268 -268 -267 -267 167
-168 168 -167 267 267 268 268 268 -268 267 -267 168 167 167 168 -267 267
-268 268 268 268 267 267 -167 168 -168 167 -267 -267 -268 -268 -268 268
-267 267 -168 -167z"/>
<path d="M3960 2565 l0 -235 940 0 940 0 0 235 0 235 -940 0 -940 0 0 -235z"/>
<path d="M3960 1635 l0 -235 940 0 940 0 0 235 0 235 -940 0 -940 0 0 -235z"/>
</g>
</svg>
